Coordinates
version=1
nRows=10
nColumns=34
inDegrees=yes

Units are S.I. units (second, meters, Newtons, ...)
If the header above contains a line with 'inDegrees', this indicates whether rotational values are in degrees (yes) or radians (no).

endheader
time	pelvis_tilt	pelvis_list	pelvis_rotation	pelvis_tx	pelvis_ty	pelvis_tz	hip_flexion_r	hip_adduction_r	hip_rotation_r	knee_angle_r	ankle_angle_r	subtalar_angle_r	mtp_angle_r	hip_flexion_l	hip_adduction_l	hip_rotation_l	knee_angle_l	ankle_angle_l	subtalar_angle_l	mtp_angle_l	lumbar_extension	lumbar_bending	lumbar_rotation	arm_flex_r	arm_add_r	arm_rot_r	elbow_flex_r	pro_sup_r	arm_flex_l	arm_add_l	arm_rot_l	elbow_flex_l	pro_sup_l
      0.76666670	     -6.02396601	     -7.92215844	    182.75699024	      1.85761899	      1.02219803	     -0.55971530	     24.42793421	     -3.93549927	      1.63649016	     28.53933876	     -2.53365162	    -11.71460253	      0.00000000	     -1.19664657	      8.23995385	      4.29746326	    105.91861874	    -13.98940676	    -25.63955400	      0.00000000	    -16.73099163	     -3.92417833	    -13.02793845	    -26.92312511	    -16.15037884	     -9.13428324	    111.69784644	     97.69939099	     -3.56723483	    -27.65681040	     42.14440286	    108.34761091	     81.97806760
      0.77500000	     -6.10198085	     -7.77399794	    182.48116174	      1.85851485	      1.01739842	     -0.56087689	     24.06857628	     -3.18649641	      2.44321752	     31.73388458	      0.25428560	    -14.11275131	      0.00000000	      1.02999779	      7.92496160	      4.08084060	    109.70962500	    -11.37131818	    -24.42614845	      0.00000000	    -17.54920607	     -3.57662600	    -11.45930857	    -24.87776299	    -16.70716171	     -8.84742800	    110.42779128	     98.02381533	     -5.22603146	    -28.49304742	     42.53468071	    105.34552960	     82.80732552
      0.78333330	     -5.68471717	     -7.31620102	    182.38996795	      1.86060934	      1.01239741	     -0.56158333	     23.95831976	     -2.19950610	      3.01953338	     34.59498121	      2.22918183	    -16.35136691	      0.00000000	      4.15750297	      7.34155524	      4.00672980	    112.93269280	     -8.29999336	    -23.61266926	      0.00000000	    -17.87353286	     -2.82257994	    -10.77734870	    -21.81959856	    -17.78761132	     -7.49827585	    108.66829255	     99.23441529	     -7.88382125	    -29.13603837	     40.73534052	    102.24129999	     86.12844698
      0.79166670	     -5.84338320	     -6.58236226	    182.13158449	      1.86434207	      1.00978985	     -0.56204596	     23.12081485	     -0.94628689	      3.60789005	     36.93226349	      4.69853350	    -17.82082709	      0.00000000	      7.01774554	      6.50870060	      3.85279292	    115.11496325	     -5.07830846	    -22.51505170	      0.00000000	    -19.25212779	     -1.67429695	     -8.94635681	    -19.56956755	    -18.62742413	     -7.26025947	    107.35049384	     99.66209497	     -9.09203259	    -29.02287505	     38.61753544	     97.98232296	     87.45574226
      0.80000000	     -5.68057890	     -5.70387897	    181.51541470	      1.86854065	      1.00966523	     -0.56275873	     22.53146309	      0.47008022	      4.24157212	     38.94448905	      5.12645085	    -19.48161428	      0.00000000	     10.38721653	      5.55403873	      3.55363035	    117.56215358	     -2.28495010	    -20.45322698	      0.00000000	    -20.09253609	     -0.56906150	     -8.09680353	    -15.32392157	    -20.26272573	     -4.68972695	    104.61045503	    100.91103263	    -12.13119570	    -28.43688025	     33.02379824	     94.83939659	     91.57683629
      0.80833330	     -5.69468093	     -4.66005975	    180.93407533	      1.87266831	      1.00305633	     -0.56328166	     21.72826045	      1.87304826	      4.34875106	     40.84581563	      6.80694751	    -20.13611662	      0.00000000	     14.01805004	      4.39440269	      3.65437700	    120.13860690	      0.88390062	    -18.28497704	      0.00000000	    -21.29493813	      0.87526408	     -5.78267794	    -12.66978204	    -21.00735340	     -4.50423593	    103.74983546	    101.04766601	    -12.85211313	    -28.10405951	     29.88204119	     91.22438418	     92.63361453
      0.81666670	     -5.30480027	     -3.48873250	    180.10631987	      1.87605137	      0.99963807	     -0.56401228	     21.05873201	      3.38892390	      4.48800886	     42.19899402	      7.63921904	    -21.13736950	      0.00000000	     18.30739596	      3.04797193	      3.66357753	    122.41153517	      3.51828600	    -15.42023744	      0.00000000	    -21.80464436	      2.08612986	     -4.72725402	     -8.12149475	    -22.44769041	     -1.39676437	    101.61910955	    101.35658432	    -16.09347313	    -26.88271547	     22.94022511	     89.99687986	     95.33463259
      0.82500000	     -5.27357135	     -2.76668870	    179.01516491	      1.87947808	      0.99754858	     -0.56529462	     19.34767679	      4.33123104	      4.71583689	     42.49763445	      9.35114977	    -21.04066288	      0.00000000	     22.26916143	      1.95625712	      3.28769179	    123.58320947	      5.80141387	    -12.22672015	      0.00000000	    -22.57521146	      2.86290702	     -1.63869917	     -5.51714778	    -23.04428260	     -0.92604536	    101.62790594	    101.29945070	    -16.49358046	    -26.89422761	     20.20188300	     88.70366612	     95.63262549
      0.83333330	     -4.95414887	     -2.04404109	    178.14794176	      1.88331695	      0.99789258	     -0.56629708	     17.33780350	      5.05459149	      4.77071858	     41.62358578	      9.45124925	    -21.25948812	      0.00000000	     26.20050118	      0.87939950	      2.88596433	    123.03841883	      6.67334458	    -10.62631072	      0.00000000	    -22.83879511	      3.30114751	     -1.86877833	      0.71084187	    -23.55094404	      4.00903168	     99.38424738	    100.92927646	    -21.31740822	    -25.25478889	     11.75837122	     90.43505176	     97.03919884
      0.84166670	     -4.68521546	     -1.85040787	    177.17310141	      1.88832161	      0.99974765	     -0.56782515	     15.36816692	      5.22651773	      5.06853938	     40.71337614	     10.53938152	    -20.78911582	      0.00000000	     29.70750282	      0.20394655	      1.83024757	    121.22164917	      6.29903182	     -9.98975344	      0.00000000	    -23.04850605	      3.44371985	      1.32038780	      3.44370079	    -23.50732549	      4.40992954	     99.38211013	    100.86703393	    -21.25279291	    -25.76284360	     10.45995964	     90.40967715	     97.06767534
